# xmcd CD database file
#
# Track frame offsets:
#	150
#	19212
#	47353
#	64503
#	83169
#	99151
#	121800
#	136168
#	160047
#	172771
#	194292
#	214766
#
# Disc length: 2884 seconds
#
# Revision: 0
# Processed by: cddbd v1.4PL0 Copyright (c) Steve Scherf et al.
# Submitted via: CDex 1.50
#
DISCID=890b420c
DTITLE=Holly Cole - live in der Fabrik in Hamburg
DYEAR=2001
DGENRE=Jazz
TTITLE0=That old black magic
TTITLE1=Tango till they sore
TTITLE2=Cry (if you want to)
TTITLE3=Same girl
TTITLE4=Don't fence me in
TTITLE5=Timbuktu
TTITLE6=It takes two to tango
TTITLE7=I've just seen a face
TTITLE8=Blame it on my youth
TTITLE9=Everything I've got
TTITLE10=Girl talk
TTITLE11=Applaus
EXTD=YEAR: 2001
EXTT0=
EXTT1=
EXTT2=
EXTT3=
EXTT4=
EXTT5=
EXTT6=
EXTT7=
EXTT8=
EXTT9=
EXTT10=
EXTT11=
PLAYORDER=
